# xmcd
#
# Track frame offsets:
#	150
#	17901
#	33855
#	42921
#	53364
#	65216
#	79498
#	91469
#
# Disc length: 1370 seconds
#
# Revision: 1
# Processed by: cddbd v1.5.1PL0 Copyright (c) Steve Scherf et al.
# Submitted via: audiograbber 1.83.01
#
DISCID=63055808
DTITLE=то лийяо пеияатийо - то пеияатийо
DYEAR=2004
DGENRE=Country
TTITLE0=мийгтес дем лпояы ма пеяилемы
TTITLE1=пеяицяажг ц.веикайгс - еккада VS поятоцаккиа
TTITLE2=пеяицяажг вя.сытгяайопоуйкос еккада стгм испамиа
TTITLE3=пеяицяажг ц.веикайг еккада VS яыссиа
TTITLE4=пеяицяажг ц.веикайг еккада VS цаккиа
TTITLE5=пеяицяажг ц.веикайг еккада VS тсевиа
TTITLE6=пеяицяажг ц.веикайг еккада VS поятоцаккиа
TTITLE7=пеяицяажг текетгс кгнгс EURO 2004
EXTD=
EXTT0=
EXTT1=
EXTT2=
EXTT3=
EXTT4=
EXTT5=
EXTT6=
EXTT7=
PLAYORDER=
